<svg aria-hidden="true" style="position: absolute; width: 0; height: 0; overflow: hidden;" version="1.1" xmlns="http://www.w3.org/2000/svg" xmlns:xlink="http://www.w3.org/1999/xlink">
    <defs>
        <symbol id="icon-ion_bed" viewBox="0 0 32 32">
            <path d="M27 14.419c-0.63-0.277-1.311-0.419-2-0.419h-18c-0.688-0.001-1.37 0.142-2 0.418-0.891 0.39-1.649 1.031-2.182 1.844s-0.817 1.765-0.818 2.738v7c0 0.265 0.105 0.52 0.293 0.707s0.442 0.293 0.707 0.293 0.52-0.105 0.707-0.293c0.188-0.187 0.293-0.442 0.293-0.707v-0.5c0.002-0.132 0.055-0.258 0.148-0.352s0.22-0.147 0.352-0.148h23c0.132 0.002 0.258 0.055 0.352 0.148s0.147 0.22 0.148 0.352v0.5c0 0.265 0.105 0.52 0.293 0.707s0.442 0.293 0.707 0.293 0.52-0.105 0.707-0.293c0.188-0.187 0.293-0.442 0.293-0.707v-7c-0.001-0.973-0.285-1.924-0.818-2.737s-1.291-1.454-2.182-1.844zM23.5 5h-15c-0.928 0-1.819 0.369-2.475 1.025s-1.025 1.547-1.025 2.475v4.5c0 0.039 0.009 0.077 0.026 0.112s0.042 0.065 0.073 0.088c0.031 0.023 0.067 0.039 0.105 0.046s0.077 0.005 0.115-0.006c0.546-0.16 1.112-0.24 1.681-0.24h0.264c0.062 0 0.121-0.022 0.168-0.063s0.076-0.098 0.082-0.159c0.055-0.489 0.287-0.94 0.653-1.268s0.841-0.51 1.332-0.51h3.5c0.492 0 0.967 0.181 1.333 0.509s0.6 0.78 0.654 1.269c0.007 0.061 0.036 0.118 0.083 0.159s0.106 0.063 0.167 0.063h1.529c0.062 0 0.121-0.022 0.167-0.063s0.076-0.098 0.083-0.159c0.055-0.488 0.287-0.939 0.653-1.267s0.84-0.51 1.331-0.511h3.5c0.492 0 0.967 0.181 1.333 0.509s0.6 0.78 0.654 1.269c0.007 0.061 0.036 0.118 0.083 0.159s0.106 0.063 0.167 0.063h0.263c0.569-0 1.135 0.081 1.681 0.241 0.037 0.011 0.077 0.013 0.115 0.006s0.074-0.023 0.105-0.046c0.031-0.023 0.056-0.054 0.073-0.088s0.026-0.073 0.026-0.112v-4.5c0-0.928-0.369-1.819-1.025-2.475s-1.547-1.025-2.475-1.025z"></path>
        </symbol>
        <symbol id="icon-airplane" viewBox="0 0 32 32">
            <path d="M11.663 29h-1.664c-0.167 0-0.332-0.042-0.478-0.122s-0.271-0.196-0.362-0.336-0.145-0.301-0.157-0.468c-0.012-0.167 0.017-0.334 0.086-0.486l4.029-8.891-6.049-0.134-2.206 2.673c-0.421 0.529-0.756 0.764-1.612 0.764h-1.12c-0.177 0.006-0.353-0.031-0.513-0.108s-0.299-0.191-0.405-0.333c-0.149-0.201-0.295-0.541-0.153-1.026l1.239-4.437c0.009-0.033 0.021-0.066 0.033-0.099 0.001-0.003 0.001-0.006 0-0.009-0.013-0.032-0.024-0.066-0.033-0.099l-1.24-4.466c-0.134-0.476 0.012-0.808 0.16-1.004 0.099-0.131 0.228-0.238 0.375-0.31s0.31-0.11 0.475-0.108h1.183c0.639 0 1.26 0.287 1.625 0.75l2.161 2.628 6.082-0.090-4.027-8.875c-0.069-0.152-0.099-0.319-0.087-0.486s0.066-0.328 0.156-0.468c0.090-0.141 0.215-0.256 0.361-0.336s0.311-0.122 0.478-0.122h1.682c0.235 0.005 0.465 0.062 0.675 0.168s0.392 0.258 0.535 0.444l7.816 9.5 3.611-0.095c0.264-0.014 0.997-0.019 1.166-0.019 3.454 0.002 5.516 1.123 5.516 3.002 0 0.591-0.236 1.687-1.817 2.385-0.933 0.413-2.178 0.621-3.701 0.621-0.167 0-0.898-0.005-1.166-0.019l-3.61-0.096-7.835 9.5c-0.143 0.185-0.325 0.337-0.534 0.442s-0.439 0.163-0.673 0.167z"></path>
        </symbol>
        <symbol id="icon-Logo" viewBox="0 0 99 32">
            <path fill="#121" style="fill: var(--color1, #121)" d="M13.092 4.957l2.861 2.161-1.748 2.224c1.207 1.365 1.651 2.923 1.651 4.64 0 1.938-0.731 4.671-3.306 5.847 2.606 1.303 3.24 3.178 3.24 5.181 0 4.323-3.305 6.991-7.849 6.991s-7.942-2.765-7.942-6.991h3.844c0 2.034 1.875 3.368 4.099 3.368s3.971-1.207 3.971-3.368c0-2.161-2.034-3.147-3.971-3.147-4.892 0-7.942-2.985-7.942-7.88s3.558-7.946 7.945-7.946c1.241 0 2.51 0.159 3.592 0.889l1.555-1.969zM3.844 13.982c0 2.733 1.844 4.354 4.099 4.354 2.223 0 4.067-1.651 4.067-4.354s-1.841-4.416-4.065-4.416c-2.258 0-4.101 1.683-4.101 4.416z"></path>
            <path fill="#121" style="fill: var(--color1, #121)" d="M44.949 0v22.213h-3.844v-22.213h3.844z"></path>
            <path fill="#121" style="fill: var(--color1, #121)" d="M62.221 14.395c0 4.512-3.082 8.166-8.166 8.166s-8.135-3.654-8.135-8.166c0-4.481 3.113-8.166 8.104-8.166s8.197 3.685 8.197 8.166zM49.795 14.395c0 2.382 1.43 4.609 4.257 4.609s4.257-2.224 4.257-4.609c0-2.351-1.651-4.64-4.257-4.64-2.796 0-4.257 2.289-4.257 4.64z"></path>
            <path fill="#121" style="fill: var(--color1, #121)" d="M67.067 0v8.676c0.921-1.62 3.495-2.51 5.147-2.51 4.574 0 7.976 2.796 7.976 8.198 0 5.147-3.464 8.198-8.070 8.198-1.906 0-3.844-0.635-5.053-2.51l-0.255 2.161h-3.623v-22.213h3.878zM67.319 14.364c0 2.827 2.096 4.609 4.543 4.609 2.478 0 4.45-1.875 4.45-4.609 0-2.827-1.971-4.575-4.45-4.575-2.444-0.003-4.543 1.841-4.543 4.575z"></path>
            <path fill="#121" style="fill: var(--color1, #121)" d="M85.954 17.095c0.901 1.733 2.963 2.473 5.532 1.538 1.342-0.49 2.92-1.637 3.442-2.807l3.166 1.45c-0.965 2.178-3.22 3.878-5.46 4.694-5.076 1.847-9.234-0.19-10.951-4.909-1.631-4.478 0.241-8.812 5.019-10.551 4.925-1.793 9.112 0.133 10.749 6.402l-11.497 4.184zM92.86 11.166c-0.934-1.824-2.775-2.235-4.866-1.476-1.971 0.717-3.235 2.26-3.076 4.365l7.942-2.889z"></path>
            <path fill="#8dd3bb" style="fill: var(--color2, #8dd3bb)" d="M35.345 10.658c-1.257-2.622-3.876-4.429-7.371-4.429-4.991 0-8.104 3.685-8.104 8.166 0 2.861 1.226 5.377 3.42 6.835 0.125-0.093 0.2-0.154 0.2-0.154 1.094-0.714 2.161-1.465 3.2-2.253-1.957-0.576-2.945-2.448-2.945-4.428 0-2.351 1.464-4.64 4.257-4.64 2.459 0 4.069 2.039 4.242 4.245 1.078-1.070 2.113-2.185 3.101-3.342zM27.609 22.554c3.095-2.194 5.956-4.7 8.538-7.476-0.295 4.192-3.317 7.484-8.142 7.484-0.133 0-0.265-0.003-0.396-0.007z"></path>
            <path fill="#8dd3bb" style="fill: var(--color2, #8dd3bb)" d="M38.505 4.034c-3.96-1.456-6.806 1.677-6.806 1.677l2.699 1.569c1.011-0.581 1.462-0.017 1.578 0.292 0.082 0.218-0.028 0.456-0.116 0.586l-0.657 0.83c-3.546 4.277-7.716 7.994-12.369 11.030 0 0-1.405 1.133-2.153 1.15-0.629 0.014-0.909-0.516-0.38-1.275l-1.303-2.94c0 0-3.39 2.221-2.733 6.124 0.278 1.649 1.827 2.821 3.473 2.524 0.841-0.15 1.881-0.561 3.153-1.402l2.34-1.53c4.654-3.042 8.826-6.77 12.369-11.053l0.804-0.972c1.212-1.379 1.756-2.515 1.94-3.413 0.283-1.374-0.53-2.716-1.838-3.198z"></path>
        </symbol>
        <symbol id="icon-Paper-Plane" viewBox="0 0 32 32">
            <path d="M28.807 2.079c0.274 0.059 0.525 0.197 0.723 0.395s0.335 0.45 0.393 0.725c0.058 0.274 0.034 0.561-0.066 0.822v0.002l-9.463 24.994c-0.111 0.277-0.303 0.515-0.551 0.682s-0.542 0.256-0.842 0.254h-0.061c-0.591-0.027-1.081-0.422-1.275-0.984h-0.002c-0.004-0.011-0.006-0.022-0.010-0.033l-0.002-0.004-3.666-8.588c-0.047-0.158-0.051-0.326-0.014-0.486 0.038-0.162 0.117-0.312 0.23-0.434l-0.002-0.002 12.834-13.764c0.045-0.045 0.081-0.099 0.105-0.158s0.037-0.123 0.037-0.188c0-0.064-0.013-0.127-0.037-0.186s-0.060-0.115-0.105-0.16c-0.045-0.045-0.099-0.081-0.158-0.105s-0.123-0.037-0.187-0.037c-0.064 0-0.128 0.013-0.188 0.037-0.029 0.012-0.058 0.027-0.084 0.045l-0.074 0.061-13.771 12.832c-0.122 0.113-0.271 0.193-0.434 0.23-0.122 0.028-0.248 0.032-0.371 0.012l-0.121-0.027-8.605-3.672c-0.284-0.095-0.531-0.277-0.709-0.518s-0.276-0.53-0.283-0.828c-0.007-0.299 0.080-0.593 0.246-0.842 0.164-0.245 0.4-0.433 0.674-0.541l0.016-0.006 25.002-9.463c0.262-0.1 0.548-0.123 0.822-0.064z"></path>
        </symbol>
        <symbol id="icon-ion_swap-horizontal" viewBox="0 0 32 32">
            <path stroke-width="2" stroke-miterlimit="4" stroke-linecap="round" stroke-linejoin="round" d="M19 3l7 7-7 7M24.929 10h-18.929M13 29l-7-7 7-7M7.125 22h18.875"></path>
        </symbol>
        <symbol id="icon-chevron_down" viewBox="0 0 32 32">
            <path stroke-width="2" stroke-miterlimit="4" stroke-linecap="round" stroke-linejoin="round" d="M7 12l9 9 9-9"></path>
        </symbol>
        <symbol id="icon-logo" viewBox="0 0 96 32">
            <path fill="currentColor" d="M12.813 4.851l2.8 2.115-1.71 2.176c1.181 1.336 1.616 2.861 1.616 4.541 0 1.896-0.715 4.571-3.235 5.722 2.55 1.275 3.171 3.11 3.171 5.070 0 4.23-3.235 6.842-7.681 6.842s-7.773-2.706-7.773-6.842h3.762c0 1.99 1.835 3.296 4.011 3.296s3.886-1.181 3.886-3.296-1.99-3.080-3.886-3.080c-4.787 0-7.773-2.922-7.773-7.712s3.482-7.776 7.776-7.776c1.214 0 2.456 0.155 3.515 0.87l1.522-1.927zM3.762 13.684c0 2.675 1.805 4.261 4.011 4.261 2.176 0 3.981-1.616 3.981-4.261s-1.802-4.322-3.978-4.322c-2.209 0-4.014 1.647-4.014 4.322z"></path>
            <path fill="currentColor" d="M43.99 0v21.74h-3.762v-21.74h3.762z"></path>
            <path fill="currentColor" d="M60.894 14.088c0 4.416-3.016 7.992-7.992 7.992s-7.961-3.576-7.961-7.992c0-4.386 3.046-7.992 7.931-7.992s8.022 3.607 8.022 7.992zM48.733 14.088c0 2.331 1.4 4.51 4.166 4.51s4.166-2.176 4.166-4.51c0-2.301-1.616-4.541-4.166-4.541-2.736 0-4.166 2.24-4.166 4.541z"></path>
            <path fill="currentColor" d="M65.638 0v8.491c0.901-1.586 3.421-2.456 5.037-2.456 4.477 0 7.806 2.736 7.806 8.023 0 5.037-3.39 8.023-7.898 8.023-1.866 0-3.762-0.621-4.945-2.456l-0.249 2.115h-3.546v-21.74h3.795zM65.884 14.058c0 2.767 2.051 4.51 4.446 4.51 2.426 0 4.355-1.835 4.355-4.51 0-2.767-1.929-4.477-4.355-4.477-2.392-0.003-4.446 1.802-4.446 4.477z"></path>
            <path fill="currentColor" d="M84.122 16.73c0.882 1.697 2.9 2.42 5.414 1.505 1.314-0.48 2.858-1.602 3.369-2.747l3.099 1.419c-0.946 2.132-3.152 3.795-5.345 4.594-4.968 1.808-9.037-0.186-10.717-4.804-1.597-4.383 0.235-8.624 4.912-10.326 4.821-1.755 8.918 0.13 10.52 6.265l-11.252 4.095zM90.88 10.928c-0.914-1.785-2.717-2.187-4.762-1.444-1.93 0.701-3.166 2.212-3.010 4.272l7.773-2.828z"></path>
            
            <path fill="#FFFFFF" d="M34.591 10.43c-1.23-2.566-3.794-4.334-7.214-4.334-4.884 0-7.931 3.607-7.931 7.992 0 2.8 1.2 5.262 3.347 6.689 0.122-0.092 0.196-0.151 0.196-0.151 1.071-0.699 2.115-1.434 3.132-2.205-1.915-0.564-2.882-2.396-2.882-4.334 0-2.301 1.433-4.541 4.166-4.541 2.407 0 3.982 1.995 4.151 4.154 1.055-1.047 2.068-2.138 3.035-3.271zM27.020 22.073c3.029-2.147 5.829-4.599 8.356-7.317-0.289 4.103-3.246 7.324-7.969 7.324-0.13 0-0.26-0.002-0.387-0.007z"></path>
            <path fill="#FFFFFF" d="M37.684 3.948c-3.875-1.425-6.661 1.641-6.661 1.641l2.642 1.536c0.99-0.568 1.43-0.017 1.544 0.286 0.080 0.213-0.028 0.446-0.114 0.574l-0.643 0.812c-3.471 4.186-7.551 7.823-12.106 10.795 0 0-1.375 1.109-2.107 1.126-0.615 0.014-0.89-0.505-0.372-1.248l-1.275-2.878c0 0-3.318 2.173-2.675 5.994 0.272 1.613 1.788 2.761 3.399 2.47 0.823-0.147 1.841-0.549 3.085-1.372l2.29-1.497c4.555-2.977 8.638-6.626 12.106-10.817l0.787-0.951c1.186-1.35 1.719-2.462 1.899-3.341 0.277-1.345-0.518-2.659-1.799-3.13z"></path>
        </symbol>
        <symbol id="icon-akar-icons_facebook-fill" viewBox="0 0 32 32">
            <path d="M1.6 15.845c0 7.159 5.2 13.112 12 14.32v-10.4h-3.6v-4h3.6v-3.2c0-3.6 2.32-5.599 5.6-5.599 1.039 0 2.16 0.16 3.199 0.319v3.68h-1.84c-1.76 0-2.16 0.88-2.16 2v2.8h3.84l-0.64 4h-3.2v10.4c6.8-1.207 12-7.159 12-14.32 0-7.964-6.48-14.48-14.4-14.48s-14.4 6.516-14.4 14.48z"></path>
        </symbol>
        <symbol id="icon-akar-icons_twitter-fill" viewBox="0 0 32 32">
            <path d="M31.525 6.583c-1.113 0.493-2.309 0.827-3.567 0.977 1.297-0.776 2.268-1.998 2.731-3.437-1.219 0.724-2.553 1.234-3.944 1.507-0.936-0.999-2.175-1.661-3.525-1.883s-2.736 0.007-3.943 0.653c-1.206 0.646-2.166 1.672-2.729 2.919s-0.699 2.645-0.387 3.978c-2.47-0.124-4.886-0.766-7.091-1.884s-4.151-2.688-5.711-4.607c-0.533 0.92-0.84 1.987-0.84 3.123-0.001 1.023 0.251 2.030 0.733 2.932s1.179 1.671 2.030 2.239c-0.986-0.031-1.951-0.298-2.813-0.777v0.080c-0 1.434 0.496 2.825 1.404 3.935s2.172 1.872 3.578 2.156c-0.915 0.248-1.874 0.284-2.805 0.107 0.397 1.234 1.169 2.313 2.21 3.087s2.297 1.202 3.593 1.225c-2.2 1.727-4.917 2.664-7.715 2.66-0.495 0-0.991-0.029-1.483-0.087 2.839 1.826 6.144 2.794 9.52 2.791 11.427 0 17.673-9.464 17.673-17.672 0-0.267-0.007-0.536-0.019-0.803 1.215-0.879 2.264-1.967 3.097-3.213l0.003-0.004z"></path>
        </symbol>
        <symbol id="icon-akar-icons_youtube-fill" viewBox="0 0 32 32">
            <path d="M31.333 8.676c-0.181-0.646-0.534-1.232-1.021-1.693-0.501-0.476-1.115-0.817-1.784-0.989-2.504-0.66-12.536-0.66-12.536-0.66-4.182-0.048-8.363 0.162-12.52 0.627-0.669 0.186-1.282 0.534-1.784 1.013-0.493 0.475-0.851 1.060-1.037 1.701-0.448 2.416-0.666 4.868-0.651 7.325-0.016 2.455 0.201 4.907 0.651 7.325 0.183 0.639 0.539 1.221 1.033 1.692s1.111 0.811 1.788 0.991c2.537 0.659 12.52 0.659 12.52 0.659 4.188 0.048 8.374-0.162 12.536-0.627 0.669-0.173 1.283-0.513 1.784-0.989 0.487-0.462 0.84-1.047 1.020-1.693 0.46-2.415 0.684-4.868 0.668-7.327 0.035-2.469-0.189-4.934-0.667-7.356v0.001zM12.802 20.565v-9.129l8.347 4.565-8.347 4.564z"></path>
        </symbol>
        <symbol id="icon-ant-design_instagram-filled" viewBox="0 0 32 32">
            <path d="M15.197 12.029c-2.497 0-4.535 2.038-4.535 4.535s2.038 4.535 4.535 4.535c2.497 0 4.535-2.038 4.535-4.535s-2.038-4.535-4.535-4.535zM28.799 16.564c0-1.878 0.017-3.739-0.088-5.614-0.105-2.177-0.602-4.11-2.195-5.702-1.596-1.596-3.525-2.089-5.702-2.194-1.878-0.105-3.739-0.088-5.614-0.088-1.878 0-3.739-0.017-5.614 0.088-2.177 0.105-4.11 0.602-5.702 2.194-1.596 1.596-2.089 3.525-2.194 5.702-0.105 1.878-0.088 3.739-0.088 5.614s-0.017 3.739 0.088 5.614c0.105 2.177 0.602 4.11 2.194 5.702 1.596 1.596 3.525 2.089 5.702 2.195 1.878 0.105 3.739 0.088 5.614 0.088 1.878 0 3.739 0.017 5.614-0.088 2.177-0.106 4.11-0.602 5.702-2.195 1.596-1.596 2.089-3.525 2.195-5.702 0.109-1.875 0.088-3.736 0.088-5.614zM15.197 23.543c-3.862 0-6.978-3.116-6.978-6.978s3.117-6.978 6.978-6.978c3.862 0 6.978 3.117 6.978 6.978s-3.116 6.978-6.978 6.978zM22.46 10.93c-0.902 0-1.63-0.728-1.63-1.63s0.728-1.63 1.63-1.63c0.902 0 1.63 0.728 1.63 1.63 0 0.214-0.042 0.426-0.124 0.624s-0.202 0.378-0.353 0.529c-0.151 0.151-0.331 0.271-0.529 0.353s-0.41 0.124-0.624 0.123z"></path>
        </symbol>
    </defs>
</svg>
