<svg aria-hidden="true" style="position: absolute; width: 0; height: 0; overflow: hidden;" version="1.1" xmlns="http://www.w3.org/2000/svg" xmlns:xlink="http://www.w3.org/1999/xlink">
    <defs>
        <symbol id="icon-ion_bed" viewBox="0 0 32 32">
            <path d="M27 14.419c-0.63-0.277-1.311-0.419-2-0.419h-18c-0.688-0.001-1.37 0.142-2 0.418-0.891 0.39-1.649 1.031-2.182 1.844s-0.817 1.765-0.818 2.738v7c0 0.265 0.105 0.52 0.293 0.707s0.442 0.293 0.707 0.293 0.52-0.105 0.707-0.293c0.188-0.187 0.293-0.442 0.293-0.707v-0.5c0.002-0.132 0.055-0.258 0.148-0.352s0.22-0.147 0.352-0.148h23c0.132 0.002 0.258 0.055 0.352 0.148s0.147 0.22 0.148 0.352v0.5c0 0.265 0.105 0.52 0.293 0.707s0.442 0.293 0.707 0.293 0.52-0.105 0.707-0.293c0.188-0.187 0.293-0.442 0.293-0.707v-7c-0.001-0.973-0.285-1.924-0.818-2.737s-1.291-1.454-2.182-1.844zM23.5 5h-15c-0.928 0-1.819 0.369-2.475 1.025s-1.025 1.547-1.025 2.475v4.5c0 0.039 0.009 0.077 0.026 0.112s0.042 0.065 0.073 0.088c0.031 0.023 0.067 0.039 0.105 0.046s0.077 0.005 0.115-0.006c0.546-0.16 1.112-0.24 1.681-0.24h0.264c0.062 0 0.121-0.022 0.168-0.063s0.076-0.098 0.082-0.159c0.055-0.489 0.287-0.94 0.653-1.268s0.841-0.51 1.332-0.51h3.5c0.492 0 0.967 0.181 1.333 0.509s0.6 0.78 0.654 1.269c0.007 0.061 0.036 0.118 0.083 0.159s0.106 0.063 0.167 0.063h1.529c0.062 0 0.121-0.022 0.167-0.063s0.076-0.098 0.083-0.159c0.055-0.488 0.287-0.939 0.653-1.267s0.84-0.51 1.331-0.511h3.5c0.492 0 0.967 0.181 1.333 0.509s0.6 0.78 0.654 1.269c0.007 0.061 0.036 0.118 0.083 0.159s0.106 0.063 0.167 0.063h0.263c0.569-0 1.135 0.081 1.681 0.241 0.037 0.011 0.077 0.013 0.115 0.006s0.074-0.023 0.105-0.046c0.031-0.023 0.056-0.054 0.073-0.088s0.026-0.073 0.026-0.112v-4.5c0-0.928-0.369-1.819-1.025-2.475s-1.547-1.025-2.475-1.025z"></path>
        </symbol>
        <symbol id="icon-airplane" viewBox="0 0 32 32">
            <path d="M11.663 29h-1.664c-0.167 0-0.332-0.042-0.478-0.122s-0.271-0.196-0.362-0.336-0.145-0.301-0.157-0.468c-0.012-0.167 0.017-0.334 0.086-0.486l4.029-8.891-6.049-0.134-2.206 2.673c-0.421 0.529-0.756 0.764-1.612 0.764h-1.12c-0.177 0.006-0.353-0.031-0.513-0.108s-0.299-0.191-0.405-0.333c-0.149-0.201-0.295-0.541-0.153-1.026l1.239-4.437c0.009-0.033 0.021-0.066 0.033-0.099 0.001-0.003 0.001-0.006 0-0.009-0.013-0.032-0.024-0.066-0.033-0.099l-1.24-4.466c-0.134-0.476 0.012-0.808 0.16-1.004 0.099-0.131 0.228-0.238 0.375-0.31s0.31-0.11 0.475-0.108h1.183c0.639 0 1.26 0.287 1.625 0.75l2.161 2.628 6.082-0.090-4.027-8.875c-0.069-0.152-0.099-0.319-0.087-0.486s0.066-0.328 0.156-0.468c0.090-0.141 0.215-0.256 0.361-0.336s0.311-0.122 0.478-0.122h1.682c0.235 0.005 0.465 0.062 0.675 0.168s0.392 0.258 0.535 0.444l7.816 9.5 3.611-0.095c0.264-0.014 0.997-0.019 1.166-0.019 3.454 0.002 5.516 1.123 5.516 3.002 0 0.591-0.236 1.687-1.817 2.385-0.933 0.413-2.178 0.621-3.701 0.621-0.167 0-0.898-0.005-1.166-0.019l-3.61-0.096-7.835 9.5c-0.143 0.185-0.325 0.337-0.534 0.442s-0.439 0.163-0.673 0.167z"></path>
        </symbol>
        <symbol id="icon-Logo" viewBox="0 0 99 32">
            <path fill="#121" style="fill: var(--color1, #121)" d="M13.092 4.957l2.861 2.161-1.748 2.224c1.207 1.365 1.651 2.923 1.651 4.64 0 1.938-0.731 4.671-3.306 5.847 2.606 1.303 3.24 3.178 3.24 5.181 0 4.323-3.305 6.991-7.849 6.991s-7.942-2.765-7.942-6.991h3.844c0 2.034 1.875 3.368 4.099 3.368s3.971-1.207 3.971-3.368c0-2.161-2.034-3.147-3.971-3.147-4.892 0-7.942-2.985-7.942-7.88s3.558-7.946 7.945-7.946c1.241 0 2.51 0.159 3.592 0.889l1.555-1.969zM3.844 13.982c0 2.733 1.844 4.354 4.099 4.354 2.223 0 4.067-1.651 4.067-4.354s-1.841-4.416-4.065-4.416c-2.258 0-4.101 1.683-4.101 4.416z"></path>
            <path fill="#121" style="fill: var(--color1, #121)" d="M44.949 0v22.213h-3.844v-22.213h3.844z"></path>
            <path fill="#121" style="fill: var(--color1, #121)" d="M62.221 14.395c0 4.512-3.082 8.166-8.166 8.166s-8.135-3.654-8.135-8.166c0-4.481 3.113-8.166 8.104-8.166s8.197 3.685 8.197 8.166zM49.795 14.395c0 2.382 1.43 4.609 4.257 4.609s4.257-2.224 4.257-4.609c0-2.351-1.651-4.64-4.257-4.64-2.796 0-4.257 2.289-4.257 4.64z"></path>
            <path fill="#121" style="fill: var(--color1, #121)" d="M67.067 0v8.676c0.921-1.62 3.495-2.51 5.147-2.51 4.574 0 7.976 2.796 7.976 8.198 0 5.147-3.464 8.198-8.070 8.198-1.906 0-3.844-0.635-5.053-2.51l-0.255 2.161h-3.623v-22.213h3.878zM67.319 14.364c0 2.827 2.096 4.609 4.543 4.609 2.478 0 4.45-1.875 4.45-4.609 0-2.827-1.971-4.575-4.45-4.575-2.444-0.003-4.543 1.841-4.543 4.575z"></path>
            <path fill="#121" style="fill: var(--color1, #121)" d="M85.954 17.095c0.901 1.733 2.963 2.473 5.532 1.538 1.342-0.49 2.92-1.637 3.442-2.807l3.166 1.45c-0.965 2.178-3.22 3.878-5.46 4.694-5.076 1.847-9.234-0.19-10.951-4.909-1.631-4.478 0.241-8.812 5.019-10.551 4.925-1.793 9.112 0.133 10.749 6.402l-11.497 4.184zM92.86 11.166c-0.934-1.824-2.775-2.235-4.866-1.476-1.971 0.717-3.235 2.26-3.076 4.365l7.942-2.889z"></path>
            <path fill="#8dd3bb" style="fill: var(--color2, #8dd3bb)" d="M35.345 10.658c-1.257-2.622-3.876-4.429-7.371-4.429-4.991 0-8.104 3.685-8.104 8.166 0 2.861 1.226 5.377 3.42 6.835 0.125-0.093 0.2-0.154 0.2-0.154 1.094-0.714 2.161-1.465 3.2-2.253-1.957-0.576-2.945-2.448-2.945-4.428 0-2.351 1.464-4.64 4.257-4.64 2.459 0 4.069 2.039 4.242 4.245 1.078-1.070 2.113-2.185 3.101-3.342zM27.609 22.554c3.095-2.194 5.956-4.7 8.538-7.476-0.295 4.192-3.317 7.484-8.142 7.484-0.133 0-0.265-0.003-0.396-0.007z"></path>
            <path fill="#8dd3bb" style="fill: var(--color2, #8dd3bb)" d="M38.505 4.034c-3.96-1.456-6.806 1.677-6.806 1.677l2.699 1.569c1.011-0.581 1.462-0.017 1.578 0.292 0.082 0.218-0.028 0.456-0.116 0.586l-0.657 0.83c-3.546 4.277-7.716 7.994-12.369 11.030 0 0-1.405 1.133-2.153 1.15-0.629 0.014-0.909-0.516-0.38-1.275l-1.303-2.94c0 0-3.39 2.221-2.733 6.124 0.278 1.649 1.827 2.821 3.473 2.524 0.841-0.15 1.881-0.561 3.153-1.402l2.34-1.53c4.654-3.042 8.826-6.77 12.369-11.053l0.804-0.972c1.212-1.379 1.756-2.515 1.94-3.413 0.283-1.374-0.53-2.716-1.838-3.198z"></path>
        </symbol>
    </defs>
</svg>
